M48
; DRILL file {KiCad (5.1.9)-1} date 01/28/21 16:01:30
; FORMAT={-:-/ absolute / inch / decimal}
; #@! TF.CreationDate,2021-01-28T16:01:30-05:00
; #@! TF.GenerationSoftware,Kicad,Pcbnew,(5.1.9)-1
FMAT,2
INCH
T1C0.0157
T2C0.0236
T3C0.0276
T4C0.0315
T5C0.0354
T6C0.0400
T7C0.0433
T8C0.0579
T9C0.0689
T10C0.1200
T11C0.1570
%
G90
G05
T1
X2.4855Y-2.5655
X2.8825Y-2.6255
X3.1295Y-2.7745
X3.1725Y-2.9855
X3.2395Y-2.6155
X3.6325Y-2.5655
X4.1925Y-2.8415
X4.4085Y-2.6465
X4.4745Y-2.8805
X4.6365Y-2.5775
X4.7545Y-2.6635
X4.8345Y-2.6755
X4.9855Y-2.7835
X5.4455Y-2.5565
X5.4875Y-2.6365
X5.9395Y-2.5635
X6.0565Y-2.9155
X6.2525Y-2.8615
X6.2605Y-2.5715
X6.4975Y-2.6255
X6.5595Y-2.7595
X6.6505Y-2.6215
X6.7385Y-2.6215
X6.9035Y-2.5975
X7.0565Y-2.6175
X7.1585Y-2.8535
X7.2455Y-3.4125
X7.2875Y-2.9815
X7.3515Y-2.5655
X7.6335Y-2.8465
X7.8055Y-2.3445
X7.8145Y-2.6885
X7.8315Y-2.5775
X8.0185Y-2.9025
X8.1904Y-2.4635
X8.1906Y-2.5157
X8.2239Y-2.4635
X8.2241Y-2.5157
X8.2573Y-2.4635
X8.2575Y-2.5157
X8.2795Y-2.8205
X8.2908Y-2.4635
X8.291Y-2.5157
X8.2935Y-2.5645
X8.3095Y-2.7875
X8.3243Y-2.4635
X8.3245Y-2.5157
X8.327Y-2.5871
X8.3421Y-2.853
X8.3577Y-2.4635
X8.3579Y-2.5157
X8.3618Y-2.819
X8.3625Y-2.6105
X8.3912Y-2.4635
X8.3914Y-2.5157
X8.4249Y-2.4635
X8.4249Y-2.5157
X8.4375Y-2.7065
X8.4445Y-2.6215
X8.9625Y-2.7375
X9.0665Y-3.0855
X9.2349Y-2.6084
X9.2627Y-2.752
X9.2631Y-2.6941
X9.2639Y-2.637
X9.2956Y-2.729
X9.2967Y-2.6719
X9.6065Y-5.7355
X9.7275Y-4.8945
X9.9095Y-2.4675
X9.9685Y-2.8475
X9.9715Y-2.7425
X9.9835Y-2.4625
X10.0615Y-2.8765
X10.1195Y-2.7285
X10.1205Y-2.2195
X10.3015Y-2.2235
X10.3115Y-2.5595
X10.4815Y-2.4565
X10.5485Y-2.5815
X10.5945Y-2.5075
X10.8425Y-2.4735
X10.8955Y-2.7985
X11.0975Y-2.5785
X11.4845Y-2.2645
X11.5655Y-2.4875
X11.7705Y-2.4505
X12.3205Y-2.6885
X12.3255Y-2.5015
X12.3285Y-2.3985
X12.3875Y-2.4855
X12.4865Y-2.4195
X12.5405Y-2.6265
X12.8435Y-2.6695
X13.4195Y-2.4445
X13.8965Y-2.8605
X14.8015Y-2.8505
T2
X8.5805Y-2.6146
X8.5805Y-2.6737
T3
X8.0124Y-2.2511
X8.0124Y-2.4519
X8.7545Y-2.3945
X8.7545Y-2.4934
X8.7545Y-2.5922
X8.7545Y-2.6911
X8.7545Y-2.7899
X8.7545Y-2.8888
X8.7545Y-2.9876
X9.0545Y-2.3945
X9.0545Y-2.4934
X9.0545Y-2.5922
X9.0545Y-2.6911
X9.0545Y-2.7899
X9.0545Y-2.8888
X9.0545Y-2.9876
T4
X1.8497Y-2.5628
X1.8497Y-2.7628
X1.9772Y-2.6604
X1.9772Y-2.8604
X2.1047Y-2.7581
X2.1047Y-2.9581
X2.2323Y-2.5628
X2.2323Y-2.7628
X2.3598Y-2.6604
X2.3598Y-2.8604
X2.4873Y-2.7581
X2.4873Y-2.9581
X2.6149Y-2.5628
X2.6149Y-2.7628
X2.7424Y-2.6604
X2.7424Y-2.8604
X2.87Y-2.7581
X2.87Y-2.9581
X2.9975Y-2.5628
X2.9975Y-2.7628
X3.125Y-2.6604
X3.125Y-2.8604
X3.2526Y-2.7581
X3.2526Y-2.9581
X3.3801Y-2.5628
X3.3801Y-2.7628
X3.5076Y-2.6604
X3.5076Y-2.8604
X3.6352Y-2.7581
X3.6352Y-2.9581
X3.7627Y-2.5628
X3.7627Y-2.7628
X3.8902Y-2.6604
X3.8902Y-2.8604
X4.0178Y-2.7581
X4.0178Y-2.9581
X4.1453Y-2.5628
X4.1453Y-2.7628
X4.2729Y-2.6604
X4.2729Y-2.8604
X4.4004Y-2.7581
X4.4004Y-2.9581
X4.5279Y-2.5628
X4.5279Y-2.7628
X4.6555Y-2.6604
X4.6555Y-2.8604
X4.783Y-2.7581
X4.783Y-2.9581
X4.9105Y-2.5628
X4.9105Y-2.7628
X5.0381Y-2.6604
X5.0381Y-2.8604
X5.1656Y-2.7581
X5.1656Y-2.9581
X5.2932Y-2.5628
X5.2932Y-2.7628
X5.4207Y-2.6604
X5.4207Y-2.8604
X5.5482Y-2.7581
X5.5482Y-2.9581
X5.6758Y-2.5628
X5.6758Y-2.7628
X5.8033Y-2.6604
X5.8033Y-2.8604
X5.9308Y-2.7581
X5.9308Y-2.9581
X6.0584Y-2.5628
X6.0584Y-2.7628
X6.1859Y-2.6604
X6.1859Y-2.8604
X6.3134Y-2.7581
X6.3134Y-2.9581
X6.441Y-2.5628
X6.441Y-2.7628
X6.5685Y-2.6604
X6.5685Y-2.8604
X6.6961Y-2.7581
X6.6961Y-2.9581
X6.8236Y-2.5628
X6.8236Y-2.7628
X6.9511Y-2.6604
X6.9511Y-2.8604
X7.0787Y-2.7581
X7.0787Y-2.9581
X7.2062Y-2.5628
X7.2062Y-2.7628
X7.3337Y-2.6525
X7.3337Y-2.8525
X7.4613Y-2.7581
X7.4613Y-2.9581
X7.5888Y-2.5628
X7.5888Y-2.7628
X7.7164Y-2.6525
X7.7164Y-2.8525
X7.8439Y-2.7581
X7.8439Y-2.9581
X7.9714Y-2.5628
X7.9714Y-2.7628
X8.099Y-2.6525
X8.099Y-2.8525
X8.2265Y-2.7581
X8.2265Y-2.9581
X8.5205Y-2.7875
X8.5205Y-2.9875
X8.6365Y-2.7875
X8.6365Y-2.9875
X9.1975Y-2.3325
X9.1975Y-2.9325
X9.2975Y-2.3325
X9.2975Y-2.9325
X9.3975Y-2.3325
X9.3975Y-2.9325
X9.4975Y-2.3325
X9.4975Y-2.9325
X9.5975Y-2.3325
X9.5975Y-2.9325
X9.6975Y-2.3325
X9.6975Y-2.9325
X9.7975Y-2.3325
X9.7975Y-2.9325
X9.8975Y-2.3325
X9.8975Y-2.9325
X9.9245Y-3.0285
X9.9975Y-2.3325
X9.9975Y-2.9325
X9.9976Y-2.2345
X10.0975Y-2.3325
X10.0975Y-2.9325
X10.1214Y-3.0285
X10.1945Y-2.2345
X10.1975Y-2.3325
X10.1975Y-2.9325
X10.2215Y-3.0591
X10.2215Y-3.1575
X10.2975Y-2.3325
X10.2975Y-2.9325
X10.3975Y-2.3325
X10.3975Y-2.9325
X10.4074Y-3.0885
X10.4975Y-2.3325
X10.4975Y-2.9325
X10.5975Y-2.3325
X10.5975Y-2.9325
X10.5995Y-3.0885
X10.6975Y-2.3325
X10.6975Y-2.9325
X10.7855Y-3.0591
X10.7855Y-3.1575
X10.7975Y-2.3325
X10.7975Y-2.9325
X10.8975Y-2.3325
X10.8975Y-2.9325
X10.9975Y-2.3325
X10.9975Y-2.9325
X11.0975Y-2.3325
X11.0975Y-2.9325
X11.702Y-2.3496
X11.702Y-2.5496
X11.702Y-2.7581
X11.702Y-2.9581
X11.8411Y-2.3496
X11.8411Y-2.5496
X11.8411Y-2.7581
X11.8411Y-2.9581
X11.9802Y-2.3496
X11.9802Y-2.5496
X11.9802Y-2.7581
X11.9802Y-2.9581
X12.1193Y-2.3496
X12.1193Y-2.5496
X12.1193Y-2.7581
X12.1193Y-2.9581
X12.2585Y-2.3496
X12.2585Y-2.5496
X12.2585Y-2.7581
X12.2585Y-2.9581
X12.3976Y-2.3496
X12.3976Y-2.5496
X12.3976Y-2.7581
X12.3976Y-2.9581
X12.5367Y-2.3496
X12.5367Y-2.5496
X12.5367Y-2.7581
X12.5367Y-2.9581
X12.6759Y-2.3496
X12.6759Y-2.5496
X12.6759Y-2.7581
X12.6759Y-2.9581
X12.815Y-2.3496
X12.815Y-2.5496
X12.815Y-2.7581
X12.815Y-2.9581
X12.9541Y-2.3496
X12.9541Y-2.5496
X12.9541Y-2.7581
X12.9541Y-2.9581
X13.0933Y-2.3496
X13.0933Y-2.5496
X13.0933Y-2.7581
X13.0933Y-2.9581
X13.2324Y-2.3496
X13.2324Y-2.5496
X13.2324Y-2.7581
X13.2324Y-2.9581
X13.3715Y-2.3496
X13.3715Y-2.5496
X13.3715Y-2.7581
X13.3715Y-2.9581
X13.5107Y-2.7581
X13.5107Y-2.9581
X13.6498Y-2.7581
X13.6498Y-2.9581
X13.7889Y-2.7581
X13.7889Y-2.9581
X13.9281Y-2.7581
X13.9281Y-2.9581
X14.0672Y-2.7581
X14.0672Y-2.9581
X14.2063Y-2.7581
X14.2063Y-2.9581
X14.3454Y-2.7581
X14.3454Y-2.9581
X14.4846Y-2.7581
X14.4846Y-2.9581
X14.6237Y-2.7581
X14.6237Y-2.9581
X14.7628Y-2.7581
X14.7628Y-2.9581
T5
X8.5668Y-2.3435
X8.6668Y-2.3435
T6
X7.2287Y-2.2715
X7.2287Y-2.3715
X7.3287Y-2.2715
X7.3287Y-2.3715
X7.4287Y-2.2715
X7.4287Y-2.3715
T7
X6.2317Y-2.2555
X6.2317Y-2.4327
X6.4876Y-2.2555
X6.4876Y-2.4327
X6.7332Y-2.2565
X6.7332Y-2.4337
X6.9891Y-2.2565
X6.9891Y-2.4337
T8
X1.6872Y-4.475
X1.6876Y-3.5378
X1.7388Y-4.4175
X1.7392Y-3.4803
X1.7812Y-7.4748
X1.8328Y-7.4173
X1.875Y-5.2248
X1.876Y-7.4744
X1.9266Y-5.1673
X1.9276Y-7.4169
X1.9356Y-4.3978
X1.936Y-3.4606
X1.9372Y-4.375
X1.9376Y-3.4378
X1.969Y-5.9752
X2.0206Y-5.9177
X2.0296Y-7.3976
X2.0312Y-7.3748
X2.1234Y-5.1476
X2.1244Y-7.3972
X2.125Y-5.1248
X2.126Y-7.3744
X2.1562Y-6.7248
X2.2078Y-6.6673
X2.2174Y-5.898
X2.219Y-5.8752
X2.4046Y-6.6476
X2.4062Y-6.6248
X2.4372Y-4.4746
X2.4888Y-4.4171
X2.6856Y-4.3974
X2.6872Y-4.3746
X2.7188Y-7.475
X2.7704Y-7.4175
X2.8112Y-5.225
X2.8132Y-7.475
X2.8628Y-5.1675
X2.8648Y-7.4175
X2.9672Y-7.3978
X2.9688Y-7.375
X3.0002Y-5.975
X3.0518Y-5.9175
X3.0596Y-5.1478
X3.0612Y-5.125
X3.0616Y-7.3978
X3.0632Y-7.375
X3.1872Y-4.4746
X3.1884Y-3.5376
X3.2388Y-4.4171
X3.24Y-3.4801
X3.2486Y-5.8978
X3.2502Y-5.875
X3.3754Y-6.7246
X3.427Y-6.6671
X3.4356Y-4.3974
X3.4368Y-3.4604
X3.4372Y-4.3746
X3.4384Y-3.4376
X3.5614Y-5.2246
X3.613Y-5.1671
X3.6238Y-6.6474
X3.6254Y-6.6246
X3.6566Y-7.4756
X3.7082Y-7.4181
X3.7496Y-5.9752
X3.75Y-7.4746
X3.8012Y-5.9177
X3.8016Y-7.4171
X3.8098Y-5.1474
X3.8114Y-5.1246
X3.905Y-7.3984
X3.9066Y-7.3756
X3.9374Y-4.4748
X3.938Y-3.537
X3.989Y-4.4173
X3.9896Y-3.4795
X3.998Y-5.898
X3.9984Y-7.3974
X3.9996Y-5.8752
X4.0Y-7.3746
X4.1258Y-6.7246
X4.1774Y-6.6671
X4.1858Y-4.3976
X4.1864Y-3.4598
X4.1874Y-4.3748
X4.188Y-3.437
X4.3114Y-5.2252
X4.363Y-5.1677
X4.3742Y-6.6474
X4.3758Y-6.6246
X4.5004Y-5.975
X4.552Y-5.9175
X4.5598Y-5.148
X4.5614Y-5.1252
X4.6876Y-3.537
X4.6884Y-4.4746
X4.7392Y-3.4795
X4.74Y-4.4171
X4.7488Y-5.8978
X4.7504Y-5.875
X4.8764Y-6.7254
X4.928Y-6.6679
X4.936Y-3.4598
X4.9368Y-4.3974
X4.9376Y-3.437
X4.9384Y-4.3746
X5.0616Y-5.2252
X5.1132Y-5.1677
X5.1248Y-6.6482
X5.1264Y-6.6254
X5.2502Y-5.975
X5.3018Y-5.9175
X5.31Y-5.148
X5.3116Y-5.1252
X5.4374Y-3.537
X5.4392Y-4.4746
X5.489Y-3.4795
X5.4908Y-4.4171
X5.4986Y-5.8978
X5.5002Y-5.875
X5.6272Y-6.7254
X5.6788Y-6.6679
X5.6858Y-3.4598
X5.6874Y-3.437
X5.6876Y-4.3974
X5.6892Y-4.3746
X5.8116Y-5.2252
X5.8632Y-5.1677
X5.8756Y-6.6482
X5.8772Y-6.6254
X6.0004Y-5.975
X6.052Y-5.9175
X6.06Y-5.148
X6.0616Y-5.1252
X6.1902Y-4.4746
X6.2418Y-4.4171
X6.2488Y-5.8978
X6.2504Y-5.875
X6.377Y-6.7256
X6.4286Y-6.6681
X6.4386Y-4.3974
X6.4402Y-4.3746
X6.4688Y-7.4754
X6.5204Y-7.4179
X6.5614Y-5.2248
X6.563Y-3.537
X6.613Y-5.1673
X6.6146Y-3.4795
X6.6254Y-6.6484
X6.627Y-6.6256
X6.7172Y-7.3982
X6.7188Y-7.3754
X6.7498Y-5.9754
X6.8014Y-5.9179
X6.8098Y-5.1476
X6.8114Y-5.1248
X6.8114Y-3.4598
X6.813Y-3.437
X6.9382Y-7.475
X6.9412Y-4.4748
X6.9898Y-7.4175
X6.9928Y-4.4173
X6.9982Y-5.8982
X6.9998Y-5.8754
X7.1278Y-6.7256
X7.1794Y-6.6681
X7.1866Y-7.3978
X7.1882Y-7.375
X7.1896Y-4.3976
X7.1912Y-4.3748
X7.3118Y-5.225
X7.313Y-3.5368
X7.3634Y-5.1675
X7.3646Y-3.4793
X7.3762Y-6.6484
X7.3778Y-6.6256
X7.4996Y-5.9752
X7.5512Y-5.9177
X7.5602Y-5.1478
X7.5614Y-3.4596
X7.5618Y-5.125
X7.563Y-3.4368
X7.6908Y-4.4748
X7.7424Y-4.4173
X7.748Y-5.898
X7.7496Y-5.8752
X7.8786Y-6.7256
X7.9302Y-6.6681
X7.9392Y-4.3976
X7.9408Y-4.3748
X8.0624Y-5.225
X8.0626Y-3.537
X8.114Y-5.1675
X8.1142Y-3.4795
X8.127Y-6.6484
X8.1286Y-6.6256
X8.25Y-5.9752
X8.3016Y-5.9177
X8.3108Y-5.1478
X8.311Y-3.4598
X8.3124Y-5.125
X8.3126Y-3.437
X8.4404Y-4.4748
X8.492Y-4.4173
X8.4984Y-5.898
X8.5Y-5.8752
X8.6266Y-6.7244
X8.6782Y-6.6669
X8.6888Y-4.3976
X8.6904Y-4.3748
X8.8122Y-3.537
X8.8126Y-5.225
X8.8638Y-3.4795
X8.8642Y-5.1675
X8.875Y-6.6472
X8.8766Y-6.6244
X9.0Y-5.975
X9.0516Y-5.9175
X9.0606Y-3.4598
X9.061Y-5.1478
X9.0622Y-3.437
X9.0626Y-5.125
X9.191Y-4.475
X9.2426Y-4.4175
X9.2484Y-5.8978
X9.25Y-5.875
X9.282Y-7.474
X9.3336Y-7.4165
X9.3756Y-6.7248
X9.4272Y-6.6673
X9.4394Y-4.3978
X9.441Y-4.375
X9.5304Y-7.3968
X9.532Y-7.374
X9.5622Y-5.2252
X9.6138Y-5.1677
X9.624Y-6.6476
X9.6256Y-6.6248
X9.75Y-5.9752
X9.8016Y-5.9177
X9.8106Y-5.148
X9.8122Y-5.1252
X9.9378Y-3.5376
X9.94Y-4.475
X9.9894Y-3.4801
X9.9916Y-4.4175
X9.9984Y-5.898
X10.0Y-5.8752
X10.1252Y-6.7248
X10.1254Y-7.475
X10.1768Y-6.6673
X10.177Y-7.4175
X10.1862Y-3.4604
X10.1878Y-3.4376
X10.1884Y-4.3978
X10.19Y-4.375
X10.2194Y-7.475
X10.271Y-7.4175
X10.3124Y-5.2252
X10.364Y-5.1677
X10.3736Y-6.6476
X10.3738Y-7.3978
X10.3752Y-6.6248
X10.3754Y-7.375
X10.4678Y-7.3978
X10.4694Y-7.375
X10.501Y-5.9756
X10.5526Y-5.9181
X10.5608Y-5.148
X10.5624Y-5.1252
X10.6874Y-3.5376
X10.6902Y-4.475
X10.739Y-3.4801
X10.7418Y-4.4175
X10.7494Y-5.8984
X10.751Y-5.8756
X10.9358Y-3.4604
X10.9374Y-3.4376
X10.9386Y-4.3978
X10.9402Y-4.375
X11.062Y-5.2248
X11.0632Y-7.4754
X11.1136Y-5.1673
X11.1148Y-7.4179
X11.157Y-7.4754
X11.2086Y-7.4179
X11.3104Y-5.1476
X11.3116Y-7.3982
X11.312Y-5.1248
X11.3132Y-7.3754
X11.4054Y-7.3982
X11.407Y-7.3754
X11.4372Y-3.5374
X11.4888Y-3.4799
X11.5316Y-6.7252
X11.5832Y-6.6677
X11.6856Y-3.4602
X11.6872Y-3.4374
X11.719Y-5.9756
X11.7706Y-5.9181
X11.78Y-6.648
X11.7816Y-6.6252
X11.8124Y-4.4744
X11.864Y-4.4169
X11.9674Y-5.8984
X11.969Y-5.8756
X12.0Y-5.2244
X12.0004Y-7.4748
X12.0516Y-5.1669
X12.052Y-7.4173
X12.0608Y-4.3972
X12.0624Y-4.3744
X12.0942Y-7.4748
X12.1458Y-7.4173
X12.1868Y-3.5374
X12.2384Y-3.4799
X12.2484Y-5.1472
X12.2488Y-7.3976
X12.25Y-5.1244
X12.2504Y-7.3748
X12.3426Y-7.3976
X12.3442Y-7.3748
X12.4352Y-3.4602
X12.4368Y-3.4374
X13.1242Y-4.4748
X13.1246Y-5.2246
X13.1252Y-3.5378
X13.1252Y-7.4758
X13.1758Y-4.4173
X13.1762Y-5.1671
X13.1768Y-3.4803
X13.1768Y-7.4183
X13.3726Y-4.3976
X13.373Y-5.1474
X13.3736Y-3.4606
X13.3736Y-7.3986
X13.3742Y-4.3748
X13.3746Y-5.1246
X13.3752Y-3.4378
X13.3752Y-7.3758
X13.8748Y-4.4748
X13.8748Y-5.2246
X13.8748Y-7.4754
X13.875Y-3.5378
X13.875Y-6.7254
X13.9264Y-4.4173
X13.9264Y-5.1671
X13.9264Y-7.4179
X13.9266Y-3.4803
X13.9266Y-6.6679
X14.1232Y-4.3976
X14.1232Y-5.1474
X14.1232Y-7.3982
X14.1234Y-3.4606
X14.1234Y-6.6482
X14.1248Y-4.3748
X14.1248Y-5.1246
X14.1248Y-7.3754
X14.125Y-3.4378
X14.125Y-6.6254
X14.6248Y-3.5378
X14.625Y-4.4748
X14.625Y-7.4752
X14.6254Y-5.2244
X14.6764Y-3.4803
X14.6766Y-4.4173
X14.6766Y-7.4177
X14.677Y-5.1669
X14.8732Y-3.4606
X14.8734Y-4.3976
X14.8734Y-7.398
X14.8738Y-5.1472
X14.8748Y-3.4378
X14.875Y-4.3748
X14.875Y-7.3752
X14.8754Y-5.1244
T9
X1.6372Y-4.575
X1.6376Y-3.6378
X1.7312Y-7.5748
X1.825Y-5.3248
X1.826Y-7.5744
X1.919Y-6.0752
X2.0372Y-4.575
X2.0376Y-3.6378
X2.1062Y-6.8248
X2.1312Y-7.5748
X2.225Y-5.3248
X2.226Y-7.5744
X2.319Y-6.0752
X2.3872Y-4.5746
X2.5062Y-6.8248
X2.6688Y-7.575
X2.7612Y-5.325
X2.7632Y-7.575
X2.7872Y-4.5746
X2.9502Y-6.075
X3.0688Y-7.575
X3.1372Y-4.5746
X3.1384Y-3.6376
X3.1612Y-5.325
X3.1632Y-7.575
X3.3254Y-6.8246
X3.3502Y-6.075
X3.5114Y-5.3246
X3.5372Y-4.5746
X3.5384Y-3.6376
X3.6066Y-7.5756
X3.6996Y-6.0752
X3.7Y-7.5746
X3.7254Y-6.8246
X3.8874Y-4.5748
X3.888Y-3.637
X3.9114Y-5.3246
X4.0066Y-7.5756
X4.0758Y-6.8246
X4.0996Y-6.0752
X4.1Y-7.5746
X4.2614Y-5.3252
X4.2874Y-4.5748
X4.288Y-3.637
X4.4504Y-6.075
X4.4758Y-6.8246
X4.6376Y-3.637
X4.6384Y-4.5746
X4.6614Y-5.3252
X4.8264Y-6.8254
X4.8504Y-6.075
X5.0116Y-5.3252
X5.0376Y-3.637
X5.0384Y-4.5746
X5.2002Y-6.075
X5.2264Y-6.8254
X5.3874Y-3.637
X5.3892Y-4.5746
X5.4116Y-5.3252
X5.5772Y-6.8254
X5.6002Y-6.075
X5.7616Y-5.3252
X5.7874Y-3.637
X5.7892Y-4.5746
X5.9504Y-6.075
X5.9772Y-6.8254
X6.1402Y-4.5746
X6.1616Y-5.3252
X6.327Y-6.8256
X6.3504Y-6.075
X6.4188Y-7.5754
X6.5114Y-5.3248
X6.513Y-3.637
X6.5402Y-4.5746
X6.6998Y-6.0754
X6.727Y-6.8256
X6.8188Y-7.5754
X6.8882Y-7.575
X6.8912Y-4.5748
X6.9114Y-5.3248
X6.913Y-3.637
X7.0778Y-6.8256
X7.0998Y-6.0754
X7.2618Y-5.325
X7.263Y-3.6368
X7.2882Y-7.575
X7.2912Y-4.5748
X7.4496Y-6.0752
X7.4778Y-6.8256
X7.6408Y-4.5748
X7.6618Y-5.325
X7.663Y-3.6368
X7.8286Y-6.8256
X7.8496Y-6.0752
X8.0124Y-5.325
X8.0126Y-3.637
X8.0408Y-4.5748
X8.2Y-6.0752
X8.2286Y-6.8256
X8.3904Y-4.5748
X8.4124Y-5.325
X8.4126Y-3.637
X8.5766Y-6.8244
X8.6Y-6.0752
X8.7622Y-3.637
X8.7626Y-5.325
X8.7904Y-4.5748
X8.95Y-6.075
X8.9766Y-6.8244
X9.141Y-4.575
X9.1622Y-3.637
X9.1626Y-5.325
X9.232Y-7.574
X9.3256Y-6.8248
X9.35Y-6.075
X9.5122Y-5.3252
X9.541Y-4.575
X9.632Y-7.574
X9.7Y-6.0752
X9.7256Y-6.8248
X9.8878Y-3.6376
X9.89Y-4.575
X9.9122Y-5.3252
X10.0752Y-6.8248
X10.0754Y-7.575
X10.1Y-6.0752
X10.1694Y-7.575
X10.2624Y-5.3252
X10.2878Y-3.6376
X10.29Y-4.575
X10.451Y-6.0756
X10.4752Y-6.8248
X10.4754Y-7.575
X10.5694Y-7.575
X10.6374Y-3.6376
X10.6402Y-4.575
X10.6624Y-5.3252
X10.851Y-6.0756
X11.012Y-5.3248
X11.0132Y-7.5754
X11.0374Y-3.6376
X11.0402Y-4.575
X11.107Y-7.5754
X11.3872Y-3.6374
X11.412Y-5.3248
X11.4132Y-7.5754
X11.4816Y-6.8252
X11.507Y-7.5754
X11.669Y-6.0756
X11.7624Y-4.5744
X11.7872Y-3.6374
X11.8816Y-6.8252
X11.95Y-5.3244
X11.9504Y-7.5748
X12.0442Y-7.5748
X12.069Y-6.0756
X12.1368Y-3.6374
X12.1624Y-4.5744
X12.35Y-5.3244
X12.3504Y-7.5748
X12.4442Y-7.5748
X12.5368Y-3.6374
X13.0742Y-4.5748
X13.0746Y-5.3246
X13.0752Y-3.6378
X13.0752Y-7.5758
X13.4742Y-4.5748
X13.4746Y-5.3246
X13.4752Y-3.6378
X13.4752Y-7.5758
X13.8248Y-4.5748
X13.8248Y-5.3246
X13.8248Y-7.5754
X13.825Y-3.6378
X13.825Y-6.8254
X14.2248Y-4.5748
X14.2248Y-5.3246
X14.2248Y-7.5754
X14.225Y-3.6378
X14.225Y-6.8254
X14.5748Y-3.6378
X14.575Y-4.5748
X14.575Y-7.5752
X14.5754Y-5.3244
X14.9748Y-3.6378
X14.975Y-4.5748
X14.975Y-7.5752
X14.9754Y-5.3244
T10
X1.8362Y-6.5498
X2.7762Y-6.5498
X4.65Y-7.8505
X4.8375Y-7.85
X8.587Y-7.8505
X9.3375Y-7.85
X11.2116Y-6.5502
X11.399Y-5.8006
X11.4924Y-4.2994
X12.1516Y-6.5502
X12.339Y-5.8006
X12.4324Y-4.2994
T11
X1.8362Y-7.1498
X1.8372Y-4.575
X1.8376Y-3.6378
X1.9312Y-7.5748
X2.025Y-5.3248
X2.026Y-7.5744
X2.119Y-6.0752
X2.3062Y-6.8248
X2.5872Y-4.5746
X2.7762Y-7.1498
X2.8688Y-7.575
X2.9612Y-5.325
X2.9632Y-7.575
X3.1502Y-6.075
X3.3372Y-4.5746
X3.3384Y-3.6376
X3.5254Y-6.8246
X3.7114Y-5.3246
X3.8066Y-7.5756
X3.8996Y-6.0752
X3.9Y-7.5746
X4.0874Y-4.5748
X4.088Y-3.637
X4.2758Y-6.8246
X4.4614Y-5.3252
X4.65Y-7.2505
X4.6504Y-6.075
X4.8375Y-7.25
X4.8376Y-3.637
X4.8384Y-4.5746
X5.0264Y-6.8254
X5.2116Y-5.3252
X5.4002Y-6.075
X5.5874Y-3.637
X5.5892Y-4.5746
X5.7772Y-6.8254
X5.9616Y-5.3252
X6.1504Y-6.075
X6.3402Y-4.5746
X6.527Y-6.8256
X6.6188Y-7.5754
X6.7114Y-5.3248
X6.713Y-3.637
X6.8998Y-6.0754
X7.0882Y-7.575
X7.0912Y-4.5748
X7.2778Y-6.8256
X7.4618Y-5.325
X7.463Y-3.6368
X7.6496Y-6.0752
X7.8408Y-4.5748
X8.0286Y-6.8256
X8.2124Y-5.325
X8.2126Y-3.637
X8.4Y-6.0752
X8.587Y-7.2505
X8.5904Y-4.5748
X8.7766Y-6.8244
X8.9622Y-3.637
X8.9626Y-5.325
X9.15Y-6.075
X9.3375Y-7.25
X9.341Y-4.575
X9.432Y-7.574
X9.5256Y-6.8248
X9.7122Y-5.3252
X9.9Y-6.0752
X10.0878Y-3.6376
X10.09Y-4.575
X10.2752Y-6.8248
X10.2754Y-7.575
X10.3694Y-7.575
X10.4624Y-5.3252
X10.651Y-6.0756
X10.8374Y-3.6376
X10.8402Y-4.575
X11.2116Y-7.1502
X11.212Y-5.3248
X11.2132Y-7.5754
X11.307Y-7.5754
X11.399Y-6.4006
X11.4924Y-4.8994
X11.5872Y-3.6374
X11.6816Y-6.8252
X11.869Y-6.0756
X11.9624Y-4.5744
X12.15Y-5.3244
X12.1504Y-7.5748
X12.1516Y-7.1502
X12.2442Y-7.5748
X12.3368Y-3.6374
X12.339Y-6.4006
X12.4324Y-4.8994
X13.2742Y-4.5748
X13.2746Y-5.3246
X13.2752Y-3.6378
X13.2752Y-7.5758
X14.0248Y-4.5748
X14.0248Y-5.3246
X14.0248Y-7.5754
X14.025Y-3.6378
X14.025Y-6.8254
X14.7748Y-3.6378
X14.775Y-4.5748
X14.775Y-7.5752
X14.7754Y-5.3244
T2
G00X8.1375Y-2.3598
M15
G01X8.1375Y-2.3283
M16
G05
G00X8.1375Y-2.5066
M15
G01X8.1375Y-2.4475
M16
G05
G00X8.478Y-2.3598
M15
G01X8.478Y-2.3283
M16
G05
G00X8.478Y-2.5066
M15
G01X8.478Y-2.4475
M16
G05
T0
M30
